<mxfile host="app.diagrams.net" modified="2024-08-17T09:17:44.094Z" agent="Mozilla/5.0 (Windows NT 10.0; Win64; x64) AppleWebKit/537.36 (KHTML, like Gecko) Chrome/127.0.0.0 Safari/537.36" version="24.6.0" etag="CvNt1Ds8Y6-oVEbRJdMb" type="github">
  <diagram name="Страница — 1" id="gzULp3EawKDx8a9gtEeD">
    <mxGraphModel>
      <root>
        <mxCell id="0" />
        <mxCell id="1" parent="0" />
      </root>
    </mxGraphModel>
  </diagram>
</mxfile>
